<svg xmlns="http://www.w3.org/2000/svg" version="1.1" xmlns:xlink="http://www.w3.org/1999/xlink" width="512" height="512" x="0" y="0" viewBox="0 0 60 60" style="enable-background:new 0 0 512 512" xml:space="preserve" class="hovered-paths"><g><path d="M56.563 8.621a4.577 4.577 0 0 0-5.184-5.184 4.479 4.479 0 0 0-1.2-2.082A4.543 4.543 0 0 0 46.936 0a4.541 4.541 0 0 0-3.246 1.352c-2.9 2.891-3.276 6.8-3.146 9.342A14.2 14.2 0 0 0 25.9 14.048L14.047 25.9A14.2 14.2 0 0 0 10.7 40.543c-2.546-.13-6.452.244-9.34 3.143a4.57 4.57 0 0 0-.008 6.488 4.5 4.5 0 0 0 2.09 1.2 4.577 4.577 0 0 0 5.184 5.184 4.479 4.479 0 0 0 1.2 2.082A4.543 4.543 0 0 0 13.064 60a4.541 4.541 0 0 0 3.246-1.352c2.9-2.891 3.276-6.8 3.146-9.342A14.15 14.15 0 0 0 34.1 45.952L45.952 34.1a14.139 14.139 0 0 0 3.37-14.638c.265.013.541.022.832.022a11.777 11.777 0 0 0 8.491-3.167 4.57 4.57 0 0 0 .008-6.488 4.5 4.5 0 0 0-2.09-1.208zM35.929 11.91a12.12 12.12 0 0 1 12.144 11.571L32.151 12.517a12.27 12.27 0 0 1 3.778-.607zm-8.613 3.553a12.155 12.155 0 0 1 2.675-2.006l17.971 12.376a12.045 12.045 0 0 1-1.971 5.092l-20.22-13.916zm-8.243 8.243L39.48 37.741l-3.812 3.811L15.279 27.52c.063-.066.118-.137.183-.2zM14.9 57.236a2.571 2.571 0 0 1-3.666-.008 2.457 2.457 0 0 1-.745-1.9 1 1 0 0 0-1.417-.958 2.59 2.59 0 0 1-3.44-3.44 1 1 0 0 0-.08-.979.972.972 0 0 0-.878-.438 2.453 2.453 0 0 1-1.9-.753 2.57 2.57 0 0 1 0-3.661c2.762-2.773 6.79-2.723 8.818-2.479a13.982 13.982 0 0 0 5.791 5.791c.237 2.032.288 6.059-2.483 8.825zm.568-12.7a12.129 12.129 0 0 1-3.525-8.013l15.906 10.961a12.2 12.2 0 0 1-12.386-2.945zm17.221 0a12.124 12.124 0 0 1-2.675 2.006L12.049 34.175a12.137 12.137 0 0 1 1.966-5.1l20.214 13.916zm8.229-8.236L20.512 22.268l3.82-3.82L44.721 32.48c-.063.066-.118.138-.183.2zm16.314-21.4c-2.754 2.766-6.767 2.723-8.8 2.481a14.144 14.144 0 0 0-5.808-5.793c-.243-2.028-.294-6.056 2.482-8.822a2.571 2.571 0 0 1 3.666.008 2.457 2.457 0 0 1 .745 1.9 1 1 0 0 0 1.417.958 2.59 2.59 0 0 1 3.44 3.44 1 1 0 0 0 .08.979.982.982 0 0 0 .878.438 2.464 2.464 0 0 1 1.9.753 2.57 2.57 0 0 1 0 3.661z" fill="#D1E9F0" opacity="1" data-original="#D1E9F0" class="hovered-path"></path></g></svg>