<svg xmlns="http://www.w3.org/2000/svg" version="1.1" xmlns:xlink="http://www.w3.org/1999/xlink" width="512" height="512" x="0" y="0" viewBox="0 0 512 512" style="enable-background:new 0 0 512 512" xml:space="preserve" class=""><g><path fill-rule="evenodd" d="M205.215 178.201a8 8 0 0 1-16 0V96.187a8 8 0 0 1 4.674-7.277l120.939-69.824a7.96 7.96 0 0 1 8.048.064l44.261 25.535 32.902 18.996-.007.013.106.062 44.121 25.473c2.527 1.432 4.091 4.052 4.087 6.958h.034v140.39a8 8 0 0 1-4.503 7.197L323.27 313.407c-2.941 1.839-6.007 1.838-8.948-.002l-117.195-67.663a7.906 7.906 0 0 1-.395-.245h-74.373a7.97 7.97 0 0 1 0-15.938H247.55a7.97 7.97 0 0 1 0 15.938h-18.923l82.17 47.441V170.962l-28.34-16.362v32.28h-.018c.005 6.067-6.611 10.012-11.982 6.906l-32.398-18.705a8 8 0 0 1-4.503-7.197v-41.518l-28.341-16.362zm25.931 16.031h-74.324a7.97 7.97 0 0 0 0 15.938h74.324a7.97 7.97 0 0 0 0-15.938zM84.753 334.75a7.967 7.967 0 0 0-10.875-2.938l-51.349 29.646c-4.978 2.633-5.849 8.506-2.658 12.321l98.134 117.338.003-.003a7.983 7.983 0 0 0 10.121 1.784l29.059-16.777-.008-.014a7.964 7.964 0 0 0 2.914-10.861l-7.055-12.22 14.286-8.247c9.47-5.467 19.309-6.754 29.896-3.917l97.169 26.037c14.602 3.912 28.889 2.021 41.99-5.542l143.447-82.82-.008-.014c11.23-6.492 15.118-15.285 14.003-24.219-1.144-9.166-7.692-17.001-15.476-22.241-12.796-8.613-31.937-12.153-48.035-2.859l-72.949 42.117c-7.311 4.221-14.193 7.389-20.862 9.364 6.792-18.714-2.837-45.798-24.425-51.582l-107.25-28.738c-14.602-3.912-28.889-2.021-41.99 5.543l.008.014-71.052 41.022zM142.3 466.286l-16.347 9.438-87.748-104.921L74.931 349.6zm102.366-85.35a7.99 7.99 0 1 1 4.125-15.437l58.809 15.757c8.952 2.399 13.211-1.54 14.619-8.733 2.079-10.623-3.243-25.029-14.269-27.984L200.7 315.801c-10.586-2.836-20.382-1.557-29.865 3.918l-.008-.014-71.07 41.033 45.317 78.491 14.313-8.264c13.113-7.57 27.357-9.454 41.958-5.542l97.169 26.037c10.585 2.836 20.383 1.557 29.865-3.918l143.447-82.82.008.014c6.989-4.091 7.641-8.44 3.814-13.661-7.201-9.822-24.783-15.345-37.4-8.061L365.3 385.133c-20.017 11.557-39.701 17.488-61.824 11.56zm187.713-270.932-105.582 60.958v121.977l105.582-60.958zm-174.877 11.792 16.955 9.789 105.635-60.989-16.956-9.79zm8.955 23.566-16.902-9.758v27.683l16.902 9.758zm129.582-65.577-105.651 60.997 28.409 16.402 105.651-60.998zm-154.5 32.795L347.19 51.582 318.797 35.19 213.146 96.187z" clip-rule="evenodd" fill="#a6958e" opacity="1" data-original="#000000" class=""></path></g></svg>