<svg xmlns="http://www.w3.org/2000/svg" version="1.1" xmlns:xlink="http://www.w3.org/1999/xlink" width="512" height="512" x="0" y="0" viewBox="0 0 64 64" style="enable-background:new 0 0 512 512" xml:space="preserve" class=""><g><path fill="#e83a47" d="M46.137 50.23c-.366 0-.735-.013-1.106-.038a13.749 13.749 0 0 1-1.084-.132l-.759-.113.206-.592c.474-1.366.877-2.921 1.234-4.756l.09-.46.727.069a9.854 9.854 0 0 0 7.164-2.404 9.81 9.81 0 0 0 3.367-6.765 9.81 9.81 0 0 0-2.404-7.165 9.824 9.824 0 0 0-6.473-3.33l-.495-.05.027-.497c.088-1.58.175-3.233.263-4.954l.027-.536.535.045c8.591.722 15.098 8.304 14.504 16.9-.573 8.286-7.523 14.778-15.822 14.778z" opacity="1" data-original="#e83a47"></path><path fill="#f9444a" d="M46.648 9.72c-2.53-2.682-11.57-4.555-21.981-4.555C14.232 5.165 4.94 7.1 2.573 9.77c-.437.493-.626 1-.564 1.516.003.515.243 1.016.695 1.495l-.631-.558.108 1.457c2.875 40.014 3.245 45.155 22.486 45.155 20.31 0 20.568-5.23 22.574-45.947l.08-1.61c.03-.527-.196-1.051-.673-1.558z" opacity="1" data-original="#f9444a" class=""></path><path fill="#ffffff" d="M24.362 50.025c-2.23-1.573-13.357-9.839-13.357-18.157 0-3.837 3.068-6.958 6.84-6.958 3.693 0 6.709 4.954 6.835 5.165.094-.211 3.108-5.165 6.802-5.165 3.771 0 6.84 3.121 6.84 6.958 0 8.207-11.128 16.563-13.358 18.155l-.3.214z" opacity="1" data-original="#f97a9b" class=""></path><path fill="#aa2939" d="M24.667 15.34c-10.82 0-19.622-1.823-19.622-4.063 0-2.242 8.803-4.065 19.622-4.065 10.82 0 19.622 1.823 19.622 4.065 0 2.24-8.802 4.063-19.622 4.063z" opacity="1" data-original="#aa2939" class=""></path></g></svg>