<svg xmlns="http://www.w3.org/2000/svg" version="1.1" xmlns:xlink="http://www.w3.org/1999/xlink" width="512" height="512" x="0" y="0" viewBox="0 0 68 68" style="enable-background:new 0 0 512 512" xml:space="preserve" class=""><g transform="matrix(1,0,0,1,0,0)"><path d="M41.69 40.196a3.648 3.648 0 0 0-2.412-2.798c-.848-.72-3.017.937-3.7 2.285-.605 1.195-.618 2.626-.036 3.738 1.05 2.004 3.363 2.01 4.924.45.984-.987 1.453-2.395 1.223-3.675zm-2.285 2.614c-.84.84-1.96 1.01-2.535-.087-.36-.688-.343-1.593.046-2.362a3.354 3.354 0 0 1 1.784-1.577c.813.342 1.359.82 1.513 1.678.142.792-.176 1.714-.808 2.348zM24.787 34.402c-.181-.156-.434-.224-.682-.156a4.824 4.824 0 0 0-3.02 2.44c-.604 1.195-.618 2.626-.035 3.738.408.779 1.05 1.31 1.809 1.497 1.094.268 2.306-.24 3.113-1.048.985-.986 1.455-2.393 1.225-3.674a3.646 3.646 0 0 0-2.41-2.797zm.124 5.411c-.504.504-1.201.772-1.694.65-.33-.08-.636-.349-.84-.737-.36-.688-.343-1.593.047-2.362a3.355 3.355 0 0 1 1.782-1.577c.806.322 1.362.832 1.514 1.678.143.792-.175 1.713-.81 2.348zM32.984 29.608a.748.748 0 0 0-.887.582 425.304 425.304 0 0 1-4.269 18.493.75.75 0 1 0 1.454.37 426.505 426.505 0 0 0 4.284-18.558.75.75 0 0 0-.582-.887z" fill="#a6958e" opacity="1" data-original="#000000" class=""></path><path d="M38.437 14.79c-.421-.435-.537-.544-.792-.573-4.368-.501-10.694-.805-15.927-1.237-.009-.033-.006-.066-.02-.098-1.065-2.59-2.676-6.501-6.583-8.084-2.613-1.058-6.197-.079-8.522 2.333-2.208 2.289-3.027 5.916-2.038 9.026.666 2.093 2.067 3.927 4.016 5.32-.989 4.133-1.848 8.275-3.03 12.392 7.6 10.76 12.943 19.946 19.997 29.637 1.183.23 2.39.09 3.915-.09.163.042.329.097.595-.076a271.544 271.544 0 0 0 5.55-3.748c.751.79 1.638 1.71 2.244 2.356.654.061 1.292.03 1.939.052a.72.72 0 0 0 .835-.069c6.958-5.725 16.047-14.131 22.956-19.815.299-.246.423-.785.084-1.136-8.807-9.113-16.658-17.33-25.219-26.19zm-32.452.912c-.827-2.6-.149-5.626 1.688-7.53 1.918-1.988 4.81-2.824 6.879-1.984 3.035 1.23 4.516 4.3 5.5 6.645-.891-.084-1.523-.072-5.51-1.047a.748.748 0 0 0-.785.288c-1.202 1.253-2.666 3-3.835 4.19-.346 1.205-.66 2.413-.961 3.621-1.43-1.15-2.466-2.58-2.976-4.183zM29.868 61.66c-7.142-9.188-14.51-19.084-20.293-29.35.772-3.173 1.478-6.128 2.27-9.113 1.058.398 2.21.714 3.498.945-.062 1.14.374 2.454 1.371 3.296 1.302 1.1 3.378 1.292 5.056.41 1.642-.865 2.737-2.686 2.663-4.43-.086-2.008-2.538-4.037-3.915-3.94-1.717.029-4.08 1.622-4.813 3.204a18.35 18.35 0 0 1-3.47-.941c.765-2.785 1.622-5.575 2.632-8.337 5.422 1.271 12.577 2.43 17.627 3.647.78 1.825 20.622 28.42 20.697 28.523-7.207 4.757-16.163 11.36-23.323 16.086zM19.124 23.075c-.638-.041-1.238-.1-1.82-.167.679-.917 2.166-1.86 3.156-1.927 1.635.509 2.439 1.658 2.474 2.5.05 1.167-.734 2.445-1.862 3.04-1.113.585-2.539.49-3.39-.23-.505-.426-.873-1.099-.76-1.918.586.072 1.881.2 2.155.2a.75.75 0 0 0 .047-1.498zm21.114 37.22a752.225 752.225 0 0 1-2.345-2.297c5.795-4.043 11.789-8.342 16.765-11.595.349-.228.49-.693.109-1.214-7.362-10.073-13.709-18.907-20.991-28.87-.343-.468-.437-.607-.71-.674-.693-.169-1.442-.34-2.227-.51 2.313.164 4.549.34 6.424.549.52.895 24.647 25.647 24.762 25.767-6.733 5.588-15.099 13.295-21.787 18.844z" fill="#a6958e" opacity="1" data-original="#000000" class=""></path></g></svg>